<svg fill="#002882" xmlns="http://www.w3.org/2000/svg" height="24" viewBox="0 -960 960 960" width="24"><defs><filter id="hm" x="-16%" y="-16%" width="132%" height="132%"><feTurbulence type="fractalNoise" baseFrequency="0.013" numOctaves="2" seed="7" result="n"></feTurbulence><feDisplacementMap in="SourceGraphic" in2="n" scale="30" xChannelSelector="R" yChannelSelector="G"></feDisplacementMap></filter></defs><g filter="url(#hm)"><path d="m221-313 142-142q12-12 28-11.5t28 12.5q11 12 11 28t-11 28L250-228q-12 12-28 12t-28-12l-86-86q-11-11-11-28t11-28q11-11 28-11t28 11l57 57Zm0-320 142-142q12-12 28-11.5t28 12.5q11 12 11 28t-11 28L250-548q-12 12-28 12t-28-12l-86-86q-11-11-11-28t11-28q11-11 28-11t28 11l57 57Zm339 353q-17 0-28.5-11.5T520-320q0-17 11.5-28.5T560-360h280q17 0 28.5 11.5T880-320q0 17-11.5 28.5T840-280H560Zm0-320q-17 0-28.5-11.5T520-640q0-17 11.5-28.5T560-680h280q17 0 28.5 11.5T880-640q0 17-11.5 28.5T840-600H560Z"></path></g></svg>