<svg fill="#002882" xmlns="http://www.w3.org/2000/svg" height="24" viewBox="0 -960 960 960" width="24"><defs><filter id="hm" x="-16%" y="-16%" width="132%" height="132%"><feTurbulence type="fractalNoise" baseFrequency="0.013" numOctaves="2" seed="60" result="n"></feTurbulence><feDisplacementMap in="SourceGraphic" in2="n" scale="30" xChannelSelector="R" yChannelSelector="G"></feDisplacementMap></filter></defs><g filter="url(#hm)"><path d="M120-200q-17 0-28.5-11.5T80-240q0-17 11.5-28.5T120-280h720q17 0 28.5 11.5T880-240q0 17-11.5 28.5T840-200H120Zm0-120v-40q0-128 78.5-226T400-710v-10q0-33 23.5-56.5T480-800q33 0 56.5 23.5T560-720v10q124 26 202 124t78 226v40H120Z"></path></g></svg>