<svg fill="#002882" xmlns="http://www.w3.org/2000/svg" height="24" viewBox="0 -960 960 960" width="24"><defs><filter id="hm" x="-16%" y="-16%" width="132%" height="132%"><feTurbulence type="fractalNoise" baseFrequency="0.013" numOctaves="2" seed="86" result="n"></feTurbulence><feDisplacementMap in="SourceGraphic" in2="n" scale="30" xChannelSelector="R" yChannelSelector="G"></feDisplacementMap></filter></defs><g filter="url(#hm)"><path d="M560-600q-17 0-28.5-11.5T520-640v-160q0-17 11.5-28.5T560-840h240q17 0 28.5 11.5T840-800v160q0 17-11.5 28.5T800-600H560ZM160-440q-17 0-28.5-11.5T120-480v-320q0-17 11.5-28.5T160-840h240q17 0 28.5 11.5T440-800v320q0 17-11.5 28.5T400-440H160Zm400 320q-17 0-28.5-11.5T520-160v-320q0-17 11.5-28.5T560-520h240q17 0 28.5 11.5T840-480v320q0 17-11.5 28.5T800-120H560Zm-400 0q-17 0-28.5-11.5T120-160v-160q0-17 11.5-28.5T160-360h240q17 0 28.5 11.5T440-320v160q0 17-11.5 28.5T400-120H160Z"></path></g></svg>