<svg fill="#002882" xmlns="http://www.w3.org/2000/svg" height="24" viewBox="0 -960 960 960" width="24"><defs><filter id="hm" x="-16%" y="-16%" width="132%" height="132%"><feTurbulence type="fractalNoise" baseFrequency="0.013" numOctaves="2" seed="2" result="n"></feTurbulence><feDisplacementMap in="SourceGraphic" in2="n" scale="30" xChannelSelector="R" yChannelSelector="G"></feDisplacementMap></filter></defs><g filter="url(#hm)"><path d="M480-520q150 0 255-47t105-113q0-66-105-113t-255-47q-150 0-255 47T120-680q0 66 105 113t255 47Zm0 100q41 0 102.5-8.5T701-456q57-19 98-49.5t41-74.5v100q0 44-41 74.5T701-356q-57 19-118.5 27.5T480-320q-41 0-102.5-8.5T259-356q-57-19-98-49.5T120-480v-100q0 44 41 74.5t98 49.5q57 19 118.5 27.5T480-420Zm0 200q41 0 102.5-8.5T701-256q57-19 98-49.5t41-74.5v100q0 44-41 74.5T701-156q-57 19-118.5 27.5T480-120q-41 0-102.5-8.5T259-156q-57-19-98-49.5T120-280v-100q0 44 41 74.5t98 49.5q57 19 118.5 27.5T480-220Z"></path></g></svg>