<svg fill="#002882" xmlns="http://www.w3.org/2000/svg" height="24" viewBox="0 -960 960 960" width="24"><defs><filter id="hm" x="-16%" y="-16%" width="132%" height="132%"><feTurbulence type="fractalNoise" baseFrequency="0.013" numOctaves="2" seed="61" result="n"></feTurbulence><feDisplacementMap in="SourceGraphic" in2="n" scale="30" xChannelSelector="R" yChannelSelector="G"></feDisplacementMap></filter></defs><g filter="url(#hm)"><path d="M360-720h80v-80h-80v80Zm160 0v-80h80v80h-80ZM360-400v-80h80v80h-80Zm320-160v-80h80v80h-80Zm0 160v-80h80v80h-80Zm-160 0v-80h80v80h-80Zm160-320v-80h80v80h-80Zm-240 80v-80h80v80h-80ZM240-160q-17 0-28.5-11.5T200-200v-560q0-17 11.5-28.5T240-800q17 0 28.5 11.5T280-760v40h80v80h-80v80h80v80h-80v280q0 17-11.5 28.5T240-160Zm360-320v-80h80v80h-80Zm-160 0v-80h80v80h-80Zm-80-80v-80h80v80h-80Zm160 0v-80h80v80h-80Zm80-80v-80h80v80h-80Z"></path></g></svg>