<svg fill="#002882" xmlns="http://www.w3.org/2000/svg" height="24" viewBox="0 -960 960 960" width="24"><defs><filter id="hm" x="-16%" y="-16%" width="132%" height="132%"><feTurbulence type="fractalNoise" baseFrequency="0.013" numOctaves="2" seed="16" result="n"></feTurbulence><feDisplacementMap in="SourceGraphic" in2="n" scale="30" xChannelSelector="R" yChannelSelector="G"></feDisplacementMap></filter></defs><g filter="url(#hm)"><path d="M680-160q-17 0-28.5-11.5T640-200v-200q0-17 11.5-28.5T680-440h80q17 0 28.5 11.5T800-400v200q0 17-11.5 28.5T760-160h-80Zm-240 0q-17 0-28.5-11.5T400-200v-560q0-17 11.5-28.5T440-800h80q17 0 28.5 11.5T560-760v560q0 17-11.5 28.5T520-160h-80Zm-240 0q-17 0-28.5-11.5T160-200v-360q0-17 11.5-28.5T200-600h80q17 0 28.5 11.5T320-560v360q0 17-11.5 28.5T280-160h-80Z"></path></g></svg>