<svg fill="#002882" xmlns="http://www.w3.org/2000/svg" height="24" viewBox="0 -960 960 960" width="24"><defs><filter id="hm" x="-16%" y="-16%" width="132%" height="132%"><feTurbulence type="fractalNoise" baseFrequency="0.013" numOctaves="2" seed="94" result="n"></feTurbulence><feDisplacementMap in="SourceGraphic" in2="n" scale="30" xChannelSelector="R" yChannelSelector="G"></feDisplacementMap></filter></defs><g filter="url(#hm)"><path d="M160-880h640q33 0 56.5 23.5T880-800v640q0 33-23.5 56.5T800-80H160q-33 0-56.5-23.5T80-160v-640q0-33 23.5-56.5T160-880Z"></path><rect x="210" y="-590" width="120" height="350" rx="14" fill="#fff"></rect><circle cx="270" cy="-660" r="66" fill="#fff"></circle><path fill="#fff" d="M410-590h115v52h2q24-46 100-46q140 0 140 158v186H640v-165q0-59-58-59-46 0-62 42-5 14-5 39v143H400v-350h10Z"></path></g></svg>