<svg xmlns="http://www.w3.org/2000/svg" viewBox="0 0 256 256">
  <defs>
    <filter id="hand-h" x="-10%" y="-10%" width="120%" height="120%">
      <feTurbulence type="fractalNoise" baseFrequency="0.022" numOctaves="2" seed="7" result="n"></feTurbulence>
      <feDisplacementMap in="SourceGraphic" in2="n" scale="3.4" xChannelSelector="R" yChannelSelector="G"></feDisplacementMap>
    </filter>
  </defs>
  <g filter="url(#hand-h)" fill="none" stroke="#002882" stroke-width="7" stroke-linecap="round" stroke-linejoin="round">
    
    <path d="M131,45 C151,45 168,61 167,82 C166,104 149,121 126,121 C103,120 89,103 90,82 C91,62 107,46 131,45 C133,45 136,46 139,48"></path>
    
    <path d="M110,119 C111,131 105,137 95,142 C76,151 63,171 61,207 L195,206 C193,170 180,150 161,142 C151,137 145,131 146,118"></path>
  </g>
  
  <g filter="url(#hand-h)" fill="#002882">
    <path d="M89,82 C84,53 105,39 129,39 C153,40 171,55 166,83 C158,67 145,60 131,62 C119,64 112,73 110,85 C105,72 95,72 89,82 Z"></path>
  </g>
  <g filter="url(#hand-h)" fill="none" stroke="#002882" stroke-width="12.5" stroke-linecap="round">
    <path d="M88,154 C112,151 144,151 168,153"></path>
    <path d="M78,174 C108,177 150,170 178,174"></path>
    <path d="M70,193 C106,189 152,196 186,192"></path>
  </g>
</svg>