<svg fill="#002882" xmlns="http://www.w3.org/2000/svg" height="24" viewBox="0 -960 960 960" width="24"><defs><filter id="hm" x="-16%" y="-16%" width="132%" height="132%"><feTurbulence type="fractalNoise" baseFrequency="0.013" numOctaves="2" seed="69" result="n"></feTurbulence><feDisplacementMap in="SourceGraphic" in2="n" scale="30" xChannelSelector="R" yChannelSelector="G"></feDisplacementMap></filter></defs><g filter="url(#hm)"><path d="M280-400v240q0 17-11.5 28.5T240-120q-17 0-28.5-11.5T200-160v-600q0-17 11.5-28.5T240-800h287q14 0 25 9t14 23l10 48h184q17 0 28.5 11.5T800-680v320q0 17-11.5 28.5T760-320H553q-14 0-25-9t-14-23l-10-48H280Z"></path></g></svg>