<svg fill="#002882" xmlns="http://www.w3.org/2000/svg" height="24" viewBox="0 -960 960 960" width="24"><defs><filter id="hm" x="-16%" y="-16%" width="132%" height="132%"><feTurbulence type="fractalNoise" baseFrequency="0.013" numOctaves="2" seed="63" result="n"></feTurbulence><feDisplacementMap in="SourceGraphic" in2="n" scale="30" xChannelSelector="R" yChannelSelector="G"></feDisplacementMap></filter></defs><g filter="url(#hm)"><path d="M440-91v-366L120-642v321q0 22 10.5 40t29.5 29L440-91Zm80 0 280-161q19-11 29.5-29t10.5-40v-321L520-457v366Zm159-550 118-69-277-159q-19-11-40-11t-40 11l-79 45 318 183ZM480-526l119-68-317-184-120 69 318 183Z"></path></g></svg>