<svg fill="#002882" xmlns="http://www.w3.org/2000/svg" height="24" viewBox="0 -960 960 960" width="120"><defs><filter id="hm" x="-16%" y="-16%" width="132%" height="132%"><feTurbulence type="fractalNoise" baseFrequency="0.013" numOctaves="2" seed="12" result="n"></feTurbulence><feDisplacementMap in="SourceGraphic" in2="n" scale="30" xChannelSelector="R" yChannelSelector="G"></feDisplacementMap></filter></defs><g filter="url(#hm)"><g transform="translate(0.0 -390.4) scale(0.1867)"><path d="M480-269 314-169q-11 7-23 6t-21-8q-9-7-14-17.5t-2-23.5l44-189-147-127q-10-9-12.5-20.5T140-571q4-11 12-18t22-9l194-17 75-178q5-12 15.5-18t21.5-6q11 0 21.5 6t15.5 18l75 178 194 17q14 2 22 9t12 18q4 11 1.5 22.5T809-528L662-401l44 189q3 13-2 23.5T690-171q-9 7-21 8t-23-6L480-269Z"></path></g><g transform="translate(195.2 -390.4) scale(0.1867)"><path d="M480-269 314-169q-11 7-23 6t-21-8q-9-7-14-17.5t-2-23.5l44-189-147-127q-10-9-12.5-20.5T140-571q4-11 12-18t22-9l194-17 75-178q5-12 15.5-18t21.5-6q11 0 21.5 6t15.5 18l75 178 194 17q14 2 22 9t12 18q4 11 1.5 22.5T809-528L662-401l44 189q3 13-2 23.5T690-171q-9 7-21 8t-23-6L480-269Z"></path></g><g transform="translate(390.4 -390.4) scale(0.1867)"><path d="M480-269 314-169q-11 7-23 6t-21-8q-9-7-14-17.5t-2-23.5l44-189-147-127q-10-9-12.5-20.5T140-571q4-11 12-18t22-9l194-17 75-178q5-12 15.5-18t21.5-6q11 0 21.5 6t15.5 18l75 178 194 17q14 2 22 9t12 18q4 11 1.5 22.5T809-528L662-401l44 189q3 13-2 23.5T690-171q-9 7-21 8t-23-6L480-269Z"></path></g><g transform="translate(585.6 -390.4) scale(0.1867)"><path d="M480-269 314-169q-11 7-23 6t-21-8q-9-7-14-17.5t-2-23.5l44-189-147-127q-10-9-12.5-20.5T140-571q4-11 12-18t22-9l194-17 75-178q5-12 15.5-18t21.5-6q11 0 21.5 6t15.5 18l75 178 194 17q14 2 22 9t12 18q4 11 1.5 22.5T809-528L662-401l44 189q3 13-2 23.5T690-171q-9 7-21 8t-23-6L480-269Z"></path></g><g transform="translate(780.8 -390.4) scale(0.1867)"><path d="M480-269 314-169q-11 7-23 6t-21-8q-9-7-14-17.5t-2-23.5l44-189-147-127q-10-9-12.5-20.5T140-571q4-11 12-18t22-9l194-17 75-178q5-12 15.5-18t21.5-6q11 0 21.5 6t15.5 18l75 178 194 17q14 2 22 9t12 18q4 11 1.5 22.5T809-528L662-401l44 189q3 13-2 23.5T690-171q-9 7-21 8t-23-6L480-269Z"></path></g></g></svg>