<svg fill="#002882" xmlns="http://www.w3.org/2000/svg" height="24" viewBox="0 -960 960 960" width="24"><defs><filter id="hm" x="-16%" y="-16%" width="132%" height="132%"><feTurbulence type="fractalNoise" baseFrequency="0.013" numOctaves="2" seed="77" result="n"></feTurbulence><feDisplacementMap in="SourceGraphic" in2="n" scale="30" xChannelSelector="R" yChannelSelector="G"></feDisplacementMap></filter></defs><g filter="url(#hm)"><path d="M160-360q-50 0-85-35t-35-85q0-50 35-85t85-35v-80q0-33 23.5-56.5T240-760h120q0-50 35-85t85-35q50 0 85 35t35 85h120q33 0 56.5 23.5T800-680v80q50 0 85 35t35 85q0 50-35 85t-85 35v160q0 33-23.5 56.5T720-120H240q-33 0-56.5-23.5T160-200v-160Zm200-80q25 0 42.5-17.5T420-500q0-25-17.5-42.5T360-560q-25 0-42.5 17.5T300-500q0 25 17.5 42.5T360-440Zm240 0q25 0 42.5-17.5T660-500q0-25-17.5-42.5T600-560q-25 0-42.5 17.5T540-500q0 25 17.5 42.5T600-440ZM360-280h240q17 0 28.5-11.5T640-320q0-17-11.5-28.5T600-360H360q-17 0-28.5 11.5T320-320q0 17 11.5 28.5T360-280Z"></path></g></svg>