<svg fill="#002882" xmlns="http://www.w3.org/2000/svg" height="24" viewBox="0 -960 960 960" width="24"><defs><filter id="hm" x="-16%" y="-16%" width="132%" height="132%"><feTurbulence type="fractalNoise" baseFrequency="0.013" numOctaves="2" seed="78" result="n"></feTurbulence><feDisplacementMap in="SourceGraphic" in2="n" scale="30" xChannelSelector="R" yChannelSelector="G"></feDisplacementMap></filter></defs><g filter="url(#hm)"><path d="M520-496v-144q0-17-11.5-28.5T480-680q-17 0-28.5 11.5T440-640v159q0 8 3 15.5t9 13.5l132 132q11 11 28 11t28-11q11-11 11-28t-11-28L520-496ZM480-80q-83 0-156-31.5T197-197q-54-54-85.5-127T80-480q0-83 31.5-156T197-763q54-54 127-85.5T480-880q83 0 156 31.5T763-763q54 54 85.5 127T880-480q0 83-31.5 156T763-197q-54 54-127 85.5T480-80Z"></path></g></svg>