<svg fill="#002882" xmlns="http://www.w3.org/2000/svg" height="24" viewBox="0 -960 960 960" width="24"><defs><filter id="hm" x="-16%" y="-16%" width="132%" height="132%"><feTurbulence type="fractalNoise" baseFrequency="0.013" numOctaves="2" seed="85" result="n"></feTurbulence><feDisplacementMap in="SourceGraphic" in2="n" scale="30" xChannelSelector="R" yChannelSelector="G"></feDisplacementMap></filter></defs><g filter="url(#hm)"><path d="M600-200v-40h-80q-33 0-56.5-23.5T440-320v-320h-80v40q0 33-23.5 56.5T280-520H160q-33 0-56.5-23.5T80-600v-160q0-33 23.5-56.5T160-840h120q33 0 56.5 23.5T360-760v40h240v-40q0-33 23.5-56.5T680-840h120q33 0 56.5 23.5T880-760v160q0 33-23.5 56.5T800-520H680q-33 0-56.5-23.5T600-600v-40h-80v320h80v-40q0-33 23.5-56.5T680-440h120q33 0 56.5 23.5T880-360v160q0 33-23.5 56.5T800-120H680q-33 0-56.5-23.5T600-200Z"></path></g></svg>