<svg viewBox="0 0 70 87.5" xmlns="http://www.w3.org/2000/svg" xmlns:xlink="http://www.w3.org/1999/xlink" xml:space="preserve" overflow="hidden"><path d="M58 35.3C58.4 35.3 58.8 35 58.8 34.5L58.8 7.3C58.8 6.9 58.5 6.5 58 6.5 57.5 6.5 57.2 6.8 57.2 7.3L57.2 33.9 40.2 33.9 40.2 32.6 55.1 32.6C55.5 32.6 55.9 32.3 55.9 31.8L55.9 7.3C55.9 6.9 55.6 6.5 55.1 6.5 54.6 6.5 54.3 6.8 54.3 7.3L54.3 31.1 40.1 31.1 40.1 29.8 52.2 29.8C52.6 29.8 53 29.5 53 29L53 7.3C53 6.9 52.7 6.5 52.2 6.5 51.7 6.5 51.4 6.8 51.4 7.3L51.4 28.2 40.1 28.2 40.1 26.8 49.3 26.8C49.7 26.8 50.1 26.5 50.1 26L50.1 7.3C50.1 6.9 49.8 6.5 49.3 6.5 48.8 6.5 48.5 6.8 48.5 7.3L48.5 25.3 40.1 25.3 40.1 20.7C40.1 12.9 33.6 6.6 25.7 6.6 17.7 6.6 11.3 13.1 11.3 21 11.3 28.9 17.8 35.4 25.7 35.4L29.7 35.4 29.7 36.7 12 36.7C11.6 36.7 11.2 37 11.2 37.5L11.2 64.9C11.2 65.3 11.5 65.7 12 65.7 12.5 65.7 12.8 65.4 12.8 64.9L12.8 38.2 29.8 38.2 29.8 39.5 14.9 39.5C14.5 39.5 14.1 39.8 14.1 40.3L14.1 64.9C14.1 65.3 14.4 65.7 14.9 65.7 15.4 65.7 15.7 65.4 15.7 64.9L15.7 41 29.9 41 29.9 42.3 17.8 42.3C17.4 42.3 17 42.6 17 43.1L17 64.9C17 65.3 17.3 65.7 17.8 65.7 18.3 65.7 18.6 65.4 18.6 64.9L18.6 43.9 29.9 43.9 29.9 45.3 20.7 45.3C20.3 45.3 19.9 45.6 19.9 46.1L19.9 64.9C19.9 65.3 20.2 65.7 20.7 65.7 21.2 65.7 21.5 65.4 21.5 64.9L21.5 46.7 29.9 46.7 29.9 51.3C29.9 59.1 36.4 65.4 44.3 65.4 52.3 65.4 58.7 58.9 58.7 51 58.7 43.1 52.2 36.6 44.3 36.6L40.3 36.6 40.3 35.3 58 35.3 58 35.3ZM34.3 46.1C34.3 46 34.3 46 34.3 45.9L34.3 21C34.3 16.4 30.5 12.6 25.8 12.6 21.1 12.6 17.3 16.4 17.3 21.1 17.3 25.8 21.1 29.6 25.8 29.6L29.9 29.6 29.9 30.9 25.8 30.9C20.3 30.9 15.7 26.4 15.7 20.8 15.7 15.3 20.2 10.7 25.8 10.7 31.3 10.7 35.9 15.1 35.9 20.5L35.9 25.6C35.9 25.7 35.9 25.7 35.9 25.8L35.9 51C35.9 55.6 39.7 59.4 44.4 59.4 49.1 59.4 52.9 55.6 52.9 50.9 52.9 46.2 49.1 42.4 44.4 42.4L40.3 42.4 40.3 41.1 44.4 41.1C49.9 41.1 54.5 45.6 54.5 51.2 54.5 56.7 50 61.3 44.4 61.3 38.8 61.3 34.3 56.9 34.3 51.5 34.3 51.5 34.3 46.1 34.3 46.1ZM29.8 25.2 25.7 25.2C23.4 25.2 21.6 23.4 21.6 21.1 21.6 18.8 23.4 17 25.7 17 28 17 29.8 18.8 29.8 21L29.8 25.2ZM40.2 46.8 44.3 46.8C46.6 46.8 48.4 48.6 48.4 50.9 48.4 53.2 46.6 55 44.3 55 42 55 40.2 53.2 40.2 51L40.2 46.8ZM25.8 33.9C18.7 33.9 12.9 28.1 12.9 21 12.9 13.9 18.7 8.1 25.8 8.1 32.9 8.1 38.7 13.8 38.7 20.7L38.7 26 38.7 26 38.7 50.9C38.7 53.9 41.2 56.4 44.3 56.4 47.4 56.4 49.9 53.9 49.9 50.8 49.9 47.7 47.4 45.2 44.3 45.2L40.2 45.2 40.2 43.7 44.3 43.7C48.2 43.7 51.3 46.9 51.3 50.7 51.3 54.5 48.1 57.7 44.3 57.7 40.4 57.7 37.3 54.6 37.3 50.8L37.3 45.9C37.3 45.8 37.3 45.8 37.3 45.7L37.3 36 37.3 20.8C37.3 14.5 32.1 9.5 25.7 9.5 19.3 9.5 14.1 14.7 14.1 21.1 14.1 27.5 19.3 32.7 25.7 32.7L29.8 32.7 29.8 34 25.8 34C25.8 34 25.8 33.9 25.8 33.9ZM44.3 38.1C51.4 38.1 57.2 43.9 57.2 51 57.2 58.1 51.4 63.9 44.3 63.9 37.2 63.9 31.4 58.2 31.4 51.3L31.4 46 31.4 46 31.4 21.1C31.4 18.1 28.9 15.6 25.8 15.6 22.7 15.6 20.2 18.1 20.2 21.2 20.2 24.3 22.7 26.8 25.8 26.8L29.9 26.8 29.9 28.3 25.8 28.3C21.9 28.3 18.8 25.1 18.8 21.3 18.8 17.5 22 14.3 25.8 14.3 29.7 14.3 32.8 17.4 32.8 21.2L32.8 26.1C32.8 26.2 32.8 26.2 32.8 26.3L32.8 36 32.8 51.4C32.8 57.7 38 62.7 44.4 62.7 50.8 62.7 55.9 57.4 55.9 51 55.9 44.6 50.7 39.4 44.3 39.4L40.2 39.4 40.2 38.1 44.3 38.1Z" stroke="none" stroke-width="1" stroke-linecap="butt" stroke-linejoin="miter" stroke-miterlimit="4" fill="#F28E14" fill-opacity="1"></path></svg>