<svg viewBox="0 0 329.43 422.45" xmlns="http://www.w3.org/2000/svg" xmlns:xlink="http://www.w3.org/1999/xlink" fill-rule="evenodd" clip-rule="evenodd" xml:space="preserve" overflow="hidden"><defs></defs><g><path d="M281.96 50.11C286.68 55.11 286.26 55.49 285.5 56.19 284.75 57.01 283.78 58.04 286.2 62.82 288.61 67.77 292.42 71.68 296.18 75.65 301.11 80.65 306.1 85.81 309.48 93.15 312.7 100.92 310.23 103.42 307.66 106.24 305.41 108.69 303.05 111.29 304.6 117.92 306.2 124.82 310.93 129.11 315.49 133.35 321.28 138.67 327.5 143.84 329.16 152.91 330.66 162.09 325.68 166.44 320.58 171.06 316.4 174.97 312.11 178.99 311.14 186.32 310.44 193.71 313.5 197.08 316.44 200.18 320.09 203.93 323.58 207.24 320.57 216.15 317.46 224.68 311.83 230.17 306.42 235.44 302.23 239.67 298.16 243.86 296.18 249.89 294.36 255.59 296.07 257.39 297.62 259.07 299.28 260.81 300.68 262.28 296.87 268.58 292.9 274.61 288.34 279.45 283.73 284.23 279.98 287.97 276.27 291.78 273.17 295.86 271.99 296.83 270.81 297.65 269.73 298.57 273.65 292.75 278.36 288.08 282.92 283.35 286.62 279.55 290.38 275.69 293 271.13 295.79 266.35 294.5 265.05 293.22 263.69 291.13 261.63 288.93 259.29 291.24 251.36 293.65 243.2 298.75 237.94 303.84 232.72 308.24 228.48 312.74 224.13 314.72 217.67 316.76 210.98 314.08 208.16 311.13 205.17 307.21 201.15 303.35 196.97 304.59 186.8 305.56 176.53 310.7 171.54 315.74 166.7 319.7 163 323.78 159.37 322.49 152.36 321.58 145.4 316.81 141.22 311.87 136.98 306.35 131.66 300.77 126.27 298.79 116.82 296.75 107.64 299.86 104.27 302.76 101.28 304.9 99 306.89 96.93 304.58 91.18 302.38 85.53 298.41 81.46 294.55 77.44 289.83 72.44 285.06 67.71 282.16 60.76 278.94 54.18 280.23 52.82 281.3 51.9 281.84 51.25 282.21 50.81 278.84 47.07 279.91 48.05 280.88 49.13 281.95 50.11ZM59.75 39.52C55.73 45.22 51.06 49.9 46.51 54.68 42.76 58.43 39.11 62.4 36.38 66.96 33.7 71.74 34.94 72.93 36.27 74.4 38.25 76.36 40.56 78.75 38.09 86.63 35.84 94.83 30.69 100.05 25.65 105.32 21.25 109.56 16.7 113.91 14.77 120.37 12.62 127.05 15.25 129.82 18.3 132.86 22.22 136.88 26.02 141.07 24.9 151.22 23.83 161.49 18.63 166.44 13.53 171.33 9.56 175.03 5.54 178.55 6.77 185.62 7.68 192.58 12.61 196.81 17.44 201.1 22.96 206.32 28.54 211.64 30.58 221.15 32.62 230.39 29.45 233.75 26.56 236.69 24.42 238.97 22.38 240.98 24.68 246.85 26.93 252.45 30.9 256.57 34.81 260.54 39.53 265.53 44.25 270.32 47.25 277.22 50.37 283.85 49.02 285.2 48.11 286.07 47.47 286.78 47.09 287.1 50.42 290.9 49.4 289.93 48.38 288.89 47.36 287.91 42.7 282.86 43.02 282.43 43.77 281.71 44.63 280.95 45.54 279.97 43.12 275.19 40.71 270.2 36.9 266.33 33.04 262.31 28.16 257.32 23.39 252.21 19.95 244.81 16.68 237.1 19.04 234.54 21.67 231.77 23.98 229.33 26.34 226.72 24.78 220.04 23.06 213.19 18.45 208.9 13.84 204.6 8.05 199.28 1.99 194.17 0.22 184.99-1.12 175.81 3.71 171.46 8.8 166.9 13.04 162.98 17.22 159.02 18.29 151.63 18.99 144.24 15.93 140.87 13.04 137.83 9.34 134.08 5.96 130.71 8.96 121.86 12.07 113.28 17.65 107.85 23.01 102.57 27.08 98.28 31.27 94.1 33.2 88.12 35.08 82.42 33.41 80.63 31.8 79 30.19 77.26 28.8 75.68 32.55 69.44 36.52 63.41 41.13 58.57 45.63 53.85 49.39 49.99 53.09 46.19 56.3 42.22 57.43 41.3 58.5 40.32 59.73 39.51ZM71.33 31.8C67.79 38.26 63.02 43.04 58.35 47.88 54.59 51.58 50.89 55.38 48.54 60.32 46.4 65.38 48.11 67.17 49.93 69.07 52.45 71.62 55.29 74.5 53.53 82.7 51.92 91.39 47.09 96.34 42.11 101.55 38.14 105.63 33.85 109.81 32.35 116.65 31.01 123.71 33.96 126.92 37.12 130.39 41.46 134.85 45.75 139.47 44.84 150.11 44.25 161.03 39.1 166.25 33.95 171.46 29.92 175.48 25.95 179.45 26.82 187.05 27.41 194.6 32.13 198.89 36.68 203.24 41.83 208.51 47.19 213.84 48.54 223.73 49.77 233.35 46.18 237.09 42.8 240.63 40.23 243.34 37.87 245.84 39.42 251.93 41.14 257.91 44.94 261.76 48.75 265.68 53.42 270.51 58.08 275.3 60.49 282.74 63.12 289.86 61.19 291.7 59.68 293.23 58.55 294.32 57.7 295.19 60.65 299.48 59.47 298.56 58.29 297.69 57.17 296.77 52.98 291.23 53.89 290.2 55.24 288.89 56.58 287.64 58.03 286.18 55.99 281.01 53.95 275.74 50.31 271.83 46.55 267.97 41.78 263.19 37.11 258.24 34.48 250.47 32.07 242.27 34.91 239.23 38.12 235.97 40.86 233.04 43.7 229.99 42.57 222.98 41.66 215.81 37.1 211.52 32.7 207.22 27.29 201.95 21.5 196.63 20.26 186.63 19.19 176.52 24.12 171.74 29.22 166.69 33.4 162.56 37.58 158.32 38.28 150.39 38.77 142.68 35.49 138.93 32.22 135.34 28.03 131.05 24.34 127.09 26.59 117.79 28.79 108.61 34.05 103.4 39.03 98.23 43.1 94.21 46.97 90.08 48.31 83.89 49.81 77.86 47.61 75.63 45.47 73.46 43.32 71.18 41.34 69.11 44.45 62.32 47.72 55.85 52.33 51.12 56.94 46.45 60.75 42.65 64.56 38.79 67.39 34.28 68.62 33.35 70.02 32.59 71.31 31.78ZM84.47 24.79C81.31 32.01 76.32 36.96 71.44 41.79 67.63 45.7 63.88 49.62 62 54.94 60.23 60.43 62.32 62.54 64.63 64.88 67.74 67.98 71.06 71.35 69.83 80.04 68.86 89.06 64.04 93.95 59.32 98.94 55.3 102.96 51.28 107.1 50.37 114.21 49.56 121.49 52.88 125.08 56.32 128.88 60.83 133.71 65.49 138.66 65.01 149.63 64.69 160.77 59.54 166.15 54.44 171.53 50.42 175.83 46.34 180 46.88 187.99 47.25 195.92 51.76 200.27 55.95 204.56 61.15 209.88 66.24 215.1 66.99 225.21 67.52 235.15 63.55 239.38 59.64 243.35 56.58 246.45 53.85 249.27 54.98 255.68 56.11 261.88 59.91 265.78 63.67 269.64 68.38 274.42 73.11 279.2 75.03 287.19 77.13 295.01 74.76 297.4 72.67 299.46 71.11 301.04 69.83 302.23 72.4 307.01 71.11 306.25 69.72 305.49 68.43 304.67 64.73 298.37 66.23 296.85 68.16 295 69.88 293.31 71.75 291.47 70.04 285.87 68.54 280.05 64.74 276.25 60.93 272.39 56.26 267.61 51.65 262.77 49.77 254.62 48.11 246.09 51.54 242.45 55.13 238.71 58.19 235.5 61.4 232.08 60.81 224.85 60.22 217.41 56.14 213.22 51.74 208.99 46.59 203.67 41.23 198.39 40.26 187.8 39.62 177.04 44.56 171.83 49.65 166.62 53.83 162.27 57.96 157.92 58.34 149.72 58.71 141.68 55.18 137.71 51.47 133.8 47.07 129.07 43 124.68 44.4 114.84 45.9 105.38 50.94 100.28 55.82 95.28 59.63 91.26 63.49 87.35 64.35 80.77 65.37 74.42 62.75 71.75 60.27 69.31 57.48 66.43 54.91 63.88 57.43 56.59 60.11 49.52 64.89 44.8 69.55 39.91 73.57 36.05 77.49 32.03 80.01 26.98 81.51 26.17 82.96 25.51 84.46 24.75ZM99.05 18.16C96.32 26.26 91.17 31.47 86.13 36.74 82.11 40.7 78.19 44.67 76.64 50.54 75.2 56.46 77.82 59.01 80.44 61.79 84.09 65.21 87.9 69.01 87.15 78.3 86.5 87.7 81.79 92.53 77.01 97.48 73.26 101.45 69.23 105.47 68.81 112.8 68.33 120.3 71.98 124.26 75.73 128.18 80.5 133.23 85.38 138.5 85.22 149.53 85.11 160.72 80.02 166.1 74.92 171.59 70.85 175.99 66.72 180.28 66.99 188.49 67.2 196.64 71.44 200.87 75.62 205.17 80.66 210.34 85.54 215.38 85.76 225.81 85.97 235.91 81.52 240.54 77.18 244.99 73.85 248.36 70.63 251.62 71.33 258.3 72.13 264.82 75.94 268.68 79.69 272.53 84.57 277.36 89.39 282.25 90.85 290.89 92.67 299.53 89.72 302.36 87.15 304.97 85.11 306.98 83.39 308.66 85.65 313.98 84.15 313.33 82.65 312.57 81.2 311.86 77.93 304.75 80.07 302.68 82.49 300.34 84.63 298.16 86.89 295.94 85.6 289.8 84.31 283.6 80.45 279.59 76.54 275.79 71.87 271.01 67.16 266.23 65.81 257.59 64.79 248.62 68.71 244.61 72.73 240.37 76.27 236.84 79.81 233.2 79.54 225.76 79.27 218.16 75.3 213.97 71.17 209.84 66.13 204.57 60.98 199.35 60.39 188.43 60.02 177.3 65.11 171.97 70.15 166.54 74.28 162.14 78.41 157.79 78.57 149.54 78.73 141.39 74.82 137.15 71.06 133.08 66.39 128.08 61.95 123.3 62.75 113.14 63.55 103.36 68.49 98.41 73.15 93.47 77.01 89.56 80.82 85.7 81.36 78.8 81.95 72.11 78.95 69.08 76.05 66.14 72.78 62.88 69.68 59.78 71.66 51.85 74.02 44.24 78.84 39.35 83.72 34.35 87.86 30.27 91.88 26.04 94.07 20.28 95.73 19.52 97.4 18.81 99.06 18.16ZM114.98 11.91C112.68 20.93 107.42 26.47 102.17 32.06 98.09 36.24 93.96 40.43 92.68 46.84 91.55 53.25 94.56 56.18 97.61 59.23 101.74 63.15 106.03 67.27 105.55 77.05 105.28 86.94 100.4 91.88 95.63 96.83 91.77 100.79 87.86 104.71 87.64 112.26 87.59 119.92 91.39 123.94 95.36 128.12 100.4 133.34 105.44 138.61 105.49 149.63 105.54 160.77 100.45 166.1 95.36 171.53 91.28 175.88 87.15 180.33 87.26 188.59 87.32 196.74 91.39 200.92 95.47 205.05 100.4 210.21 105.28 215.26 105.18 225.75 105.12 236.12 100.41 241.01 95.58 245.69 91.93 249.38 88.39 252.91 88.82 259.98 89.3 266.82 93.16 270.74 97.08 274.65 102.07 279.76 107.06 284.86 108.23 294.32 109.62 303.67 106.19 306.98 103.03 309.97 100.67 312.31 98.36 314.53 100.45 320.62 98.68 319.91 97.07 319.26 95.52 318.56 92.57 310.63 95.25 308.02 98.25 305.03 100.82 302.53 103.5 299.81 102.43 293.13 101.36 286.5 97.44 282.37 93.37 278.3 88.54 273.51 83.77 268.57 82.96 259.5 82.32 250.15 86.66 245.75 91.16 241.08 94.91 237.38 98.72 233.42 98.72 225.86 98.83 218.15 94.7 214.13 90.73 209.95 85.85 204.79 80.81 199.68 80.54 188.6 80.43 177.4 85.58 171.97 90.52 166.49 94.7 162.2 98.83 157.8 98.83 149.54 98.78 141.44 94.75 137.21 90.79 132.91 85.86 127.64 81.09 122.7 81.41 112.38 81.79 102.33 86.61 97.33 91.38 92.55 95.14 88.58 99.11 84.67 99.38 77.5 99.81 70.38 96.38 67.12 93.11 63.86 89.3 60 85.71 56.53 87.26 48 89.14 39.63 94.23 34.42 99.27 29.26 103.51 24.86 107.74 20.3 109.68 13.89 111.39 13.24 113.16 12.58 114.98 11.93ZM131.87 6.09C130.21 15.98 124.9 21.74 119.64 27.66 115.4 32.17 111.22 36.57 110.15 43.47 109.29 50.42 112.67 53.68 116.15 57.1 120.71 61.4 125.43 65.85 125.22 76.17 125.11 86.49 120.01 91.49 115.09 96.65 111.12 100.57 107.21 104.58 107.21 112.3 107.32 120.07 111.34 124.2 115.42 128.44 120.62 133.71 125.82 138.98 125.93 149.9 126.09 160.93 120.94 166.15 115.9 171.53 111.77 175.88 107.64 180.17 107.64 188.42 107.48 196.52 111.56 200.65 115.63 204.78 120.46 209.89 125.55 214.94 125.34 225.58 125.12 236.17 120.03 241.23 114.93 246.07 111.02 249.93 107.21 253.84 107.32 261.17 107.64 268.34 111.61 272.41 115.74 276.6 120.78 281.82 126.04 287.3 126.89 297.35 127.96 307.35 123.83 311.26 120.18 314.74 117.4 317.46 114.77 320.12 116.48 326.85 114.6 326.09 112.78 325.49 111.12 324.84 108.54 315.98 111.82 312.89 115.3 309.46 118.25 306.53 121.42 303.65 120.66 296.32 119.85 288.98 115.73 284.75 111.6 280.56 106.5 275.4 101.62 270.4 101.09 260.67 100.82 250.89 105.48 246.27 110.42 241.49 114.39 237.42 118.52 233.45 118.63 225.74 118.73 217.86 114.77 213.78 110.8 209.71 105.87 204.55 100.82 199.44 100.88 188.41 100.88 177.28 106.03 171.9 111.02 166.52 115.2 162.22 119.28 157.99 119.28 149.89 119.12 141.74 114.99 137.45 110.91 133.22 105.76 127.84 100.78 122.68 100.72 112.19 100.78 101.92 105.65 96.92 110.48 92.09 114.45 88.07 118.42 83.99 118.64 76.49 118.85 68.99 115.04 65.41 111.45 61.93 107.11 57.69 103.04 53.78 104.32 44.65 105.88 35.41 111.07 29.87 116.28 24.55 120.57 19.77 124.81 14.93 126.26 7.82 128.08 7.22 129.96 6.62 131.89 6.08ZM149.24 1.74C148.38 12.39 143.4 17.93 138.14 23.69 133.96 28.52 129.72 33.09 128.92 40.53 128.33 47.91 132.14 51.66 135.89 55.25 140.88 59.82 145.92 64.71 145.86 75.41 145.76 86.06 140.61 91.33 135.35 96.38 131.33 100.62 127.25 104.69 127.36 112.52 127.52 120.34 131.71 124.58 135.89 128.82 141.14 134.09 146.35 139.36 146.4 150.17 146.51 160.99 141.41 166.2 136.37 171.47 132.24 175.71 128.11 180 128.01 188.1 127.84 196.14 131.98 200.27 136.05 204.45 141.04 209.5 146.19 214.61 145.97 225.48 145.92 236.18 140.56 241.29 135.3 246.39 131.12 250.36 126.99 254.27 126.99 261.99 127.15 269.65 131.33 273.89 135.62 278.18 140.82 283.61 146.19 288.99 146.61 299.53 147.2 310.13 142.64 314.85 138.51 318.99 135.13 322.14 132.13 325.07 133.41 332.52 131.53 331.98 129.6 331.49 127.78 330.83 125.8 321.16 129.55 317.36 133.57 313.39 136.95 310.18 140.54 306.87 140 299.16 139.63 291.39 135.28 286.77 131.1 282.43 125.74 277.27 120.69 271.89 120.37 261.73 120.32 251.52 125.36 246.57 130.5 241.57 134.74 237.49 139.03 233.42 139.13 225.49 139.29 217.61 135.16 213.43 131.09 209.3 126.16 204.19 121.06 199.09 121.27 188.22 121.38 177.19 126.42 171.87 131.51 166.54 135.64 162.36 139.77 158.12 139.66 150.13 139.55 142.09 135.42 137.8 131.24 133.62 125.93 128.24 120.83 123.03 120.67 112.38 120.51 101.89 125.5 96.84 130.59 91.79 134.67 87.66 138.85 83.48 138.85 75.65 139.01 67.83 134.94 64.02 131.02 60.27 126.25 55.65 121.69 51.36 122.6 41.42 123.83 31.48 128.98 25.83 134.29 20.18 138.53 15.18 142.55 10.4 143.51 2.74 145.39 2.52 147.16 2.2 149.19 1.76ZM166.78 0.06C166.89 10.82 162.17 16.08 157.34 21.41 153.27 25.75 149.09 30.53 148.76 38.36 148.44 46.18 152.57 49.93 156.65 54.01 161.9 59.17 167.21 64.28 167.21 75.09 167.15 85.9 161.79 91.17 156.54 96.33 152.25 100.57 148.02 104.7 148.07 112.63 148.18 120.56 152.46 124.8 156.7 129.04 161.85 134.2 167.05 139.36 166.99 150.17 166.99 160.99 161.9 166.2 156.86 171.41 152.67 175.65 148.6 179.89 148.55 187.87 148.45 195.86 152.57 199.99 156.76 204.17 161.91 209.33 167.11 214.49 167.05 225.3 167.1 236.06 161.8 241.33 156.43 246.49 152.14 250.67 147.8 254.74 147.8 262.68 147.91 270.5 152.09 274.9 156.43 279.14 161.74 284.46 166.94 289.51 166.83 300.33 166.78 311.14 161.95 316.36 157.29 321.35 153.7 325.43 150.21 328.9 150.91 336.84 148.92 336.24 146.99 335.91 145.11 335.64 144.04 325.16 148.22 320.59 152.73 316.46 156.54 312.38 160.34 308.26 160.18 300.33 160.18 292.4 156 288.11 151.6 283.92 146.24 278.43 141.03 273.1 140.82 262.51 140.93 251.86 146.13 246.81 151.54 241.7 155.84 237.46 160.12 233.28 160.17 225.35 160.17 217.37 156.04 213.18 151.86 209.05 146.71 203.84 141.62 198.73 141.78 187.92 141.88 177.05 146.93 171.84 151.97 166.56 156.15 162.43 160.28 158.19 160.28 150.21 160.28 142.22 156.1 138.04 151.87 133.8 146.66 128.58 141.41 123.37 141.2 112.66 141.09 101.91 146.35 96.69 151.55 91.47 155.85 87.29 160.13 83.1 160.18 75.17 160.24 67.19 155.89 63 151.71 58.87 146.62 54.14 141.63 49.31 142.16 38.82 142.81 28.28 148.06 22.84 153.11 16.76 157.07 12.41 160.94 8.07 161.04 0.19 162.92 0.03 164.96-0.14 166.78 0.03ZM184.26 2.28C185.28 12.77 181.1 17.33 176.59 21.46 172.89 25.54 169.03 29.67 169.08 37.59 169.19 45.52 173.43 49.81 177.66 54.05 183.02 59.48 188.28 64.81 188.5 75.4 188.45 86.05 183.19 91.1 177.83 96.27 173.59 100.45 169.25 104.64 169.2 112.62 169.2 120.55 173.38 124.79 177.51 128.92 182.66 134.03 187.76 139.19 187.6 150.06 187.44 160.92 182.39 166.09 177.35 171.41 173.17 175.55 169.04 179.72 169.04 187.71 169.09 195.69 173.28 199.93 177.51 204.17 182.77 209.39 188.02 214.54 188.24 225.3 188.29 236.01 183.15 241.22 177.84 246.38 173.54 250.62 169.21 254.81 169.15 262.79 169.09 270.73 173.38 274.9 177.62 279.09 182.77 283.76 187.7 288.65 187.22 299.14 186.47 309.63 181.32 315.11 176.33 321.2 172.31 325.55 168.39 329.84 168.34 337.82 166.46 337.88 164.58 337.98 162.55 337.93 162.44 327.12 167.16 321.85 171.98 316.52 176.12 312.23 180.24 307.45 180.61 299.58 180.88 291.81 176.75 288.06 172.67 283.93 167.42 278.82 162.16 273.66 162.16 262.85 162.16 252.09 167.52 246.83 172.89 241.61 177.13 237.43 181.42 233.24 181.31 225.31 181.2 217.38 176.92 213.2 172.68 208.9 167.48 203.74 162.33 198.58 162.33 187.77 162.39 177.01 167.48 171.74 172.47 166.53 176.6 162.35 180.78 158.11 180.84 150.12 180.95 142.08 176.76 137.95 172.63 133.77 167.48 128.6 162.28 123.44 162.33 112.69 162.28 101.82 167.59 96.61 173.01 91.45 177.25 87.32 181.53 83.19 181.53 75.32 181.47 67.38 177.14 63.04 172.9 58.8 167.6 53.58 162.39 48.37 162.5 37.66 162.55 26.85 167.33 21.58 171.98 16.58 175.68 12.5 179.12 9.03 178.53 1.2 180.46 1.74 182.28 2.01 184.27 2.29ZM201.58 7.17C203.46 16.84 199.7 20.54 195.74 24.56 192.36 27.71 188.77 31.08 189.31 38.85 189.68 46.56 194.08 51.18 198.26 55.52 203.46 60.79 208.61 66.12 208.87 76.22 208.98 86.43 203.99 91.38 198.79 96.43 194.61 100.45 190.38 104.58 190.16 112.51 190 120.39 194.18 124.51 198.2 128.7 203.19 133.69 208.23 138.86 208.01 149.78 207.96 160.81 202.86 166.08 197.77 171.35 193.64 175.64 189.57 179.83 189.67 187.86 189.78 195.85 193.96 200.19 198.14 204.38 203.39 209.65 208.54 214.92 208.7 225.56 208.86 236.1 203.93 241.1 198.78 246.21 194.65 250.39 190.53 254.52 190.37 262.35 190.32 270.11 194.34 273.92 198.31 277.72 203.03 282.23 207.64 286.63 206.68 296.57 205.5 306.51 200.3 312.05 195.04 317.81 190.8 322.81 186.73 327.65 185.87 335.31 183.89 335.53 182.01 335.8 180.13 336.24 180.88 325.64 185.97 320.11 191.18 314.29 195.42 309.4 199.65 304.84 200.4 297.5 201.04 289.95 197.29 286.31 193.48 282.72 188.44 278.1 183.4 273.21 183.45 262.51 183.56 251.86 188.81 246.64 193.96 241.54 198.15 237.36 202.17 233.23 202.06 225.46 201.9 217.64 197.66 213.34 193.53 209.16 188.22 203.84 183.02 198.62 182.92 187.76 182.86 176.89 187.91 171.73 192.89 166.46 197.07 162.17 201.26 157.93 201.31 149.89 201.53 141.79 197.4 137.72 193.32 133.54 188.33 128.43 183.18 123.27 183.34 112.52 183.5 101.76 188.86 96.65 194.07 91.55 198.2 87.58 202.32 83.67 202.32 76.01 202.16 68.35 197.93 64.06 193.79 59.82 188.49 54.34 183.12 49.01 182.64 38.47 182.1 27.82 186.66 23.21 190.89 18.91 194.11 15.81 197.16 12.87 195.93 5.49 197.81 6.03 199.63 6.52 201.56 7.17ZM218.31 13.15C220.72 22.01 217.5 24.99 213.96 28.47 210.96 31.4 207.85 34.34 208.71 41.62 209.46 48.95 213.59 53.19 217.72 57.37 222.76 62.48 227.75 67.58 228.23 77.2 228.61 87.03 223.84 91.65 218.95 96.48 214.93 100.56 210.91 104.52 210.7 112.29 210.54 120.17 214.62 124.13 218.53 128.26 223.46 133.32 228.62 138.47 228.45 149.56 228.45 160.7 223.3 165.97 218.27 171.45 214.19 175.69 210.06 179.98 210.11 188.13 210.27 196.23 214.4 200.46 218.48 204.76 223.63 210.08 228.62 215.25 228.72 225.78 228.67 236.05 223.84 241.05 218.96 245.89 214.94 249.91 210.92 254.09 210.71 261.54 210.5 268.98 214.31 272.62 218 276.1 222.24 280.23 226.42 284.25 225.08 293.38 223.52 302.56 218.32 308.15 213.17 313.48 208.83 318.26 204.59 323.1 203.04 330.21 201.22 330.8 199.4 331.41 197.46 331.84 199.18 322.01 204.43 316.14 209.69 310.38 214.03 305.82 218.16 301.47 219.23 294.52 220.09 287.51 216.71 284.25 213.17 280.88 208.67 276.53 203.89 272.08 204.22 261.82 204.32 251.49 209.42 246.44 214.35 241.33 218.27 237.36 222.34 233.45 222.23 225.68 222.07 217.91 218.05 213.72 213.92 209.55 208.72 204.17 203.57 198.95 203.41 188.03 203.3 177 208.4 171.78 213.44 166.46 217.62 162.06 221.69 157.77 221.75 149.56 221.8 141.41 217.84 137.29 213.71 133.21 208.88 128.04 203.85 123 204.11 112.35 204.32 101.76 209.42 96.65 214.46 91.92 218.27 88.01 222.24 84.15 222.02 76.82 221.75 69.6 217.62 65.52 213.6 61.39 208.51 56.12 203.3 50.69 202.5 40.58 201.43 30.53 205.4 26.62 209.15 23.2 211.99 20.43 214.57 17.88 212.85 11.14 214.67 11.79 216.5 12.45 218.32 13.15ZM233.86 19.46C236.75 27.44 234.07 30 231.12 32.93 228.55 35.48 225.82 38.15 226.94 44.78 227.96 51.51 231.93 55.59 235.95 59.66 240.72 64.49 245.6 69.38 246.41 78.46 247.06 87.8 242.66 92.26 238.21 96.83 234.46 100.63 230.65 104.54 230.65 112.15 230.54 119.92 234.62 123.94 238.53 128.01 243.52 133.12 248.61 138.34 248.72 149.42 248.88 160.61 243.73 166.04 238.8 171.47 234.67 175.82 230.55 180.16 230.49 188.37 230.6 196.58 234.62 200.81 238.64 205.05 243.52 210.26 248.35 215.26 248.02 225.64 247.64 235.7 242.87 240.64 238.1 245.47 234.24 249.44 230.27 253.35 230 260.52 229.63 267.63 233.01 270.89 236.28 274.1 240.08 277.9 243.78 281.54 242.12 289.96 240.19 298.38 235.15 303.54 230.05 308.7 225.81 313.15 221.68 317.77 219.64 324.18 217.98 324.83 216.21 325.54 214.39 326.14 216.7 317.12 221.9 311.47 227.1 305.87 231.28 301.69 235.41 297.56 236.7 291.26 237.88 284.69 234.82 281.76 231.71 278.76 227.63 274.8 223.34 270.66 223.77 260.94 224.1 251.05 228.98 246.06 233.8 241.22 237.66 237.15 241.58 233.29 241.74 225.74 241.79 218.08 238.04 214 233.96 209.82 228.92 204.55 223.88 199.28 223.83 188.3 223.77 177.16 228.87 171.84 233.91 166.46 238.04 162.06 242.22 157.66 242.12 149.4 242.06 141.24 237.99 137.01 233.91 132.88 229.03 127.67 224.04 122.61 224.15 112.13 224.26 101.76 229.03 96.92 233.75 92.3 237.4 88.55 240.93 85.02 240.56 78.01 240.07 71.11 236.16 67.2 232.25 63.23 227.26 58.12 222.28 53.02 221.1 43.56 219.6 34.28 223.08 31.01 226.35 27.97 228.76 25.64 230.96 23.41 228.87 17.43 230.53 18.08 232.2 18.73 233.86 19.44ZM248.12 26.14C251.39 33.21 249.25 35.21 246.83 37.66 244.73 39.72 242.38 42.06 243.77 48.15 245.01 54.35 248.92 58.31 252.78 62.16 257.5 66.95 262.22 71.78 263.51 80.42 264.58 89.38 260.67 93.35 256.54 97.64 253.11 101.12 249.62 104.75 249.84 112.25 250.11 119.8 254.13 123.98 258.15 128.17 263.19 133.38 268.44 138.66 268.98 149.57 269.36 160.71 264.21 165.98 259.16 171.41 255.08 175.82 250.96 180.22 250.85 188.47 250.58 196.57 254.61 200.8 258.41 204.93 262.96 209.87 267.47 214.71 266.72 224.87 265.86 234.65 260.98 239.64 256.26 244.53 252.4 248.45 248.59 252.36 248.06 259.2 247.41 265.83 250.42 268.87 253.26 271.75 256.64 275.12 259.7 278.22 257.66 286.1 255.35 293.76 250.58 298.65 245.7 303.65 241.57 307.72 237.45 312.02 235.24 317.77 233.58 318.48 231.97 319.18 230.36 319.89 233.09 311.74 238.14 306.47 243.29 301.31 247.26 297.29 251.23 293.32 252.73 287.46 254.17 281.54 251.6 278.98 248.92 276.21 245.22 272.68 241.46 268.93 242.27 259.75 242.91 250.3 247.57 245.41 252.35 240.52 256.21 236.55 260.18 232.58 260.61 225.2 261.04 217.7 257.4 213.73 253.64 209.77 248.87 204.66 244.04 199.5 244.15 188.47 244.21 177.22 249.35 171.84 254.39 166.41 258.52 162.01 262.6 157.66 262.39 149.46 262.12 141.36 257.83 137.07 253.81 132.89 248.71 127.62 243.78 122.52 243.62 112.14 243.41 101.98 247.86 97.42 252.15 93.02 255.48 89.6 258.7 86.34 258 79.71 257.19 73.19 253.39 69.28 249.58 65.47 244.81 60.58 239.93 55.69 238.43 47.06 236.61 38.42 239.5 35.6 242.29 32.99 244.22 31.03 246.04 29.29 243.68 23.97 245.13 24.68 246.63 25.38 248.13 26.14ZM260.88 33.31C264.58 39.56 263.08 41.13 261.15 42.98 259.49 44.61 257.56 46.51 259.27 52.11 260.83 57.87 264.63 61.67 268.34 65.53 273 70.36 277.72 75.14 279.55 83.35 281.31 91.88 277.83 95.41 274.24 99.21 271.13 102.48 267.97 105.84 268.5 113.12 269.09 120.51 273.22 124.7 277.57 128.93 282.77 134.25 288.18 139.58 289.1 150.17 289.79 160.93 284.65 166.09 279.66 171.36 275.58 175.65 271.45 180.05 271.03 188.2 270.71 196.3 274.25 200.26 277.95 204.12 282.35 208.9 286.48 213.24 285.03 223.13 283.59 232.58 278.6 237.69 273.66 242.69 269.8 246.71 265.94 250.57 265.03 257.14 264.06 263.55 266.69 266.16 269.11 268.66 271.95 271.54 274.52 274.14 272 281.37 269.27 288.43 264.55 293.21 259.83 298 255.87 301.91 251.9 305.88 249.43 311.04 247.88 311.75 246.43 312.51 244.98 313.22 248.09 305.99 253.02 301.05 257.9 296.16 261.76 292.3 265.62 288.44 267.44 283.06 269.21 277.58 267.07 275.46 264.81 273.18 261.7 270.03 258.38 266.66 259.56 257.91 260.63 248.95 265.4 244 270.17 239.11 274.19 235.04 278.16 230.91 279.12 223.79 279.87 216.51 276.55 212.87 273.12 209.17 268.56 204.28 263.9 199.28 264.43 188.36 264.75 177.11 269.85 171.79 274.89 166.47 278.91 162.13 283.04 157.89 282.5 149.96 282.12 141.97 277.51 137.68 273.38 133.44 268.18 128.12 263.08 122.85 262.39 112.75 261.8 102.86 265.76 98.62 269.79 94.6 272.68 91.56 275.53 88.62 274.35 82.27 273.22 76.02 269.36 72.16 265.72 68.36 261 63.53 256.23 58.8 254.3 50.81 252.21 42.99 254.58 40.54 256.72 38.48 258.22 36.96 259.56 35.66 256.93 30.93 258.16 31.69 259.56 32.45 260.9 33.32ZM272.2 41.19C276.27 46.84 275.31 47.88 274.02 49.13 272.73 50.38 271.28 51.85 273.32 56.95 275.3 62.22 279.06 66.13 282.86 69.93 287.53 74.82 292.24 79.71 294.82 87.53 297.29 95.73 294.34 98.72 291.18 102.04 288.44 104.92 285.6 107.96 286.78 114.92 287.75 122.14 292.25 126.38 296.6 130.67 301.96 136.05 307.86 141.38 309.09 151.37 310.11 161.47 305.23 166.26 300.14 171.2 295.96 175.38 291.77 179.68 291.08 187.55 290.65 195.32 293.87 199.07 297.19 202.6 301.37 206.9 305.13 210.91 302.87 220.26 300.73 229.44 295.41 234.61 290.38 239.72 286.3 243.8 282.39 247.92 281 254.17 279.66 260.2 281.86 262.43 283.84 264.44 286.15 266.88 288.13 268.9 284.97 275.74 281.7 282.21 277.03 286.88 272.48 291.55 268.62 295.35 264.86 299.26 262.07 303.83 260.63 304.64 259.4 305.46 258.05 306.27 261.64 299.8 266.42 295.03 271.13 290.25 274.83 286.45 278.53 282.59 280.84 277.7 283.04 272.59 281.32 270.91 279.5 268.95 276.93 266.4 274.19 263.52 275.85 255.31 277.51 246.62 282.34 241.68 287.33 236.52 291.41 232.39 295.69 228.21 297.14 221.36 298.43 214.3 295.48 211.09 292.26 207.62 288.02 203.17 283.68 198.5 284.48 187.85 285.17 176.93 290.22 171.71 295.31 166.55 299.38 162.47 303.35 158.51 302.55 150.9 301.85 143.35 297.19 139.06 292.68 134.76 287.43 129.44 282.01 124.11 280.83 114.22 279.54 104.55 283.19 100.8 286.57 97.32 289.09 94.66 291.45 92.11 289.95 85.97 288.18 80.11 284.32 76.19 280.62 72.28 275.95 67.44 271.24 62.66 268.82 55.27 266.25 48.05 268.13 46.26 269.68 44.73 270.75 43.64 271.61 42.77 268.61 38.59 269.79 39.4 270.97 40.33 272.21 41.19Z" stroke="none" stroke-width="1" stroke-linecap="butt" stroke-linejoin="miter" stroke-miterlimit="4" fill="#0042FF" fill-rule="nonzero" fill-opacity="1"></path></g></svg>