<svg viewBox="0 0 500 500" xmlns="http://www.w3.org/2000/svg" xmlns:xlink="http://www.w3.org/1999/xlink" id="Calque_2" overflow="hidden"><defs></defs><g id="Calque_1-2"><rect x="0" y="0" width="500" height="500" fill="none"></rect><circle cx="407.64" cy="326.6" r="23.4" fill="#F98F03" transform="matrix(0.973259 -0.22971 0.22971 0.973259 -64.13 102.39)"></circle><path d="M332.29 275.75C332.29 298.65 321.35 311.26 301.49 311.26 281.63 311.26 270.69 298.65 270.69 275.75L270.69 150 229.3 150 229.3 275.75C229.3 298.65 218.36 311.26 198.5 311.26 178.64 311.26 167.7 298.65 167.7 275.75L167.7 150 126.31 150 126.31 275.75C126.31 322.24 152.09 350 195.26 350 219.38 350 238.24 340.42 250 322.26 261.66 340.17 280.97 350 304.73 350 347.91 350 373.68 322.24 373.68 275.75L373.68 150 332.29 150 332.29 275.75Z" fill="#FFFFFF"></path></g></svg>